<svg width="512" height="512" viewBox="0 0 512 512" fill="none" xmlns="http://www.w3.org/2000/svg">
<rect width="512" height="512" fill="#0086FF"/>
<path d="M256.312 126.45L297.03 126.298C297.82 126.298 300.462 129.535 305.014 136.06L305.105 167.068C305.237 168.206 302.997 170.837 298.797 175.01C305.343 197.595 309.683 209.305 311.716 209.71C312.544 210.367 313.523 210.789 314.53 210.924L314.553 216.817H295.968C294.72 216.817 291.073 203.842 285.117 178.449H277.785L277.357 214.414C277.339 216.008 276.72 216.817 275.498 216.817H262.488C261.291 216.817 260.688 216.008 260.706 214.414L262.327 135.049C258.217 133.203 256.201 131.407 256.227 129.662L256.312 126.45ZM270.168 142.712L270.295 143.8C275.66 146.152 278.268 147.998 278.243 149.313L278.108 160.416H289.819L289.922 143.774H272.1L270.168 142.712Z" fill="#222428"/>
<path d="M321.424 126.298H355.21C355.417 127.76 357.858 131.34 362.981 137.139L367.04 206.167C367.183 207.175 364.215 211.209 358.343 217.94H324.914C323.667 217.94 323.047 217.159 322.979 215.596L319.894 128.617C319.93 127.071 320.44 126.298 321.424 126.298ZM327.394 142.584L327.547 143.668C333.585 145.131 336.617 146.593 336.697 148.055L338.814 197.948C339.032 199.486 339.728 200.267 340.772 200.267H350.956L347.977 142.483L327.394 142.584Z" fill="#222428"/>
<path d="M164.739 126.298H188.442C189.206 126.298 191.498 129.888 195.342 137.145L191.523 159.322H176.247L179.251 142.644H158.883L158.654 143.79C164.943 144.86 167.896 146.336 167.565 148.195L158.272 198.177H169.195L172.937 177.426H188.213L183.401 205.256C183.223 206.3 179.506 210.221 172.199 217.07H146.713C146.968 215.721 144.957 211.774 140.73 205.256L153.944 137.221C154.148 136.287 157.746 132.646 164.739 126.298Z" fill="#222428"/>
<path d="M160.009 122H183.712C184.476 122 186.767 125.59 190.612 132.847L186.793 155.024H171.517L174.521 138.347H154.153L153.924 139.492C160.212 140.562 163.166 142.039 162.835 143.897L153.542 193.879H164.464L168.207 173.128H183.483L178.671 200.958C178.493 202.002 174.775 205.923 167.468 212.772H141.983C142.238 211.423 140.226 207.476 136 200.958L149.214 132.923C149.417 131.99 153.016 128.349 160.009 122Z" fill="white"/>
<path d="M208.171 126.298H239.894L247.056 215.956H229.464L228.06 197.115H217.24C215.788 197.115 214.039 203.362 211.947 215.956H194.329C206.997 164.538 213.21 138.232 213.485 135.083C209.644 132.062 207.785 130.005 207.907 128.558L208.171 126.298ZM224.512 142.65C223.028 153.484 220.83 165.443 217.917 178.529L219.636 179.722H228.699C228.892 177.183 228.377 164.792 227.186 142.65H224.512Z" fill="#222428"/>
<path d="M203.443 122H235.167L242.329 211.658H224.736L223.333 192.817H212.512C211.061 192.817 209.311 199.064 207.22 211.658H189.601C202.269 160.24 208.482 133.934 208.757 130.786C204.917 127.764 203.058 125.707 203.179 124.26L203.443 122ZM219.785 138.352C218.3 149.186 216.102 161.146 213.19 174.231L214.908 175.424H223.972C224.165 172.885 223.649 160.494 222.458 138.352H219.785Z" fill="white"/>
<path d="M251.585 122.152L292.303 122C293.092 122 295.735 125.237 300.287 131.763L300.377 162.77C300.51 163.908 298.269 166.539 294.07 170.712C300.616 193.298 304.956 205.008 306.989 205.412C307.817 206.069 308.795 206.491 309.803 206.626L309.826 212.519H291.24C289.993 212.519 286.346 199.545 280.39 174.152H273.058L272.63 210.117C272.611 211.71 271.992 212.519 270.77 212.519H257.76C256.564 212.519 255.96 211.71 255.979 210.117L257.6 130.751C253.49 128.905 251.473 127.109 251.5 125.364L251.585 122.152ZM265.441 138.414L265.568 139.502C270.933 141.854 273.541 143.7 273.515 145.016L273.38 156.119H285.092L285.194 139.477H267.372L265.441 138.414Z" fill="white"/>
<path d="M316.694 122H350.479C350.686 123.462 353.127 127.042 358.25 132.841L362.31 201.869C362.452 202.877 359.484 206.911 353.613 213.643H320.184C318.936 213.643 318.317 212.861 318.248 211.298L315.163 124.319C315.199 122.773 315.709 122 316.694 122ZM322.663 138.286L322.817 139.37C328.854 140.833 331.887 142.295 331.966 143.757L334.083 193.65C334.301 195.188 334.997 195.97 336.041 195.97H346.225L343.246 138.186L322.663 138.286Z" fill="white"/>
<path d="M99.9231 238.474H133.912C133.912 239.951 136.025 243.566 140.532 249.448L137.171 319.316C137.171 320.368 133.836 324.349 127.165 331.258H93.4308C92.1748 331.258 91.6147 330.468 91.7505 328.89L98.0136 240.817C98.3192 239.255 98.9557 238.474 99.9231 238.474ZM104.2 254.973V256.068C110.107 257.545 113.01 259.022 112.908 260.473L109.751 310.914C109.751 312.467 110.438 313.256 111.482 313.256H121.666L124.976 254.922L104.2 254.973Z" fill="#222428"/>
<path d="M148.623 238.627L191.727 238.474V242.853C186.864 252.453 184.089 257.29 183.274 257.29H156.974C155.698 257.324 154.447 256.939 153.409 256.196H152.493V257.316C159.113 257.316 162.329 259.922 162.142 265.133C161.939 270.378 162.473 273.026 163.695 273.026H182.001L181.594 289.093H161.226L160.513 308.902H181.976C182.765 308.902 185.438 313.994 190.021 324.332V329.144H143.709L145.95 278.755C146.332 270.072 146.612 256.959 146.79 239.62L148.623 238.627Z" fill="#222428"/>
<path d="M203.034 238.474H235.496L249.957 329.399H231.957L229.156 310.15H217.954C216.502 310.15 215.204 316.49 214.058 329.272H196.058C204.944 277.125 209.221 250.467 209.246 247.258C205.071 244.203 202.983 241.988 203.009 240.638L203.034 238.474ZM220.856 255.024C220.194 266.024 218.896 278.152 216.961 291.41L218.819 292.606H228.087C228.087 290.06 226.559 277.329 223.58 255.024H220.856Z" fill="#222428"/>
<path d="M254.973 238.474H277.556L279.465 313.765H300.164L301.437 322.117C301.055 329.144 300.72 329.577 300.771 330.57H297.331L296.04 330.57H266.633C266.724 330.57 262.814 330.57 262.814 330.57V329.374L261.465 248.481C257.188 244.916 255.024 241.58 254.973 238.474Z" fill="#222428"/>
<path d="M306.248 238.627L349.886 238.474L350.166 242.879C346.067 252.555 343.623 257.418 342.834 257.418H316.203C314.881 257.44 313.584 257.058 312.486 256.323H311.594V257.418C318.384 257.418 321.872 260.049 322.058 265.311C322.313 270.582 323.051 273.23 324.299 273.23H342.834L343.725 289.398H323.357L324.299 309.36H346.042C346.831 309.36 349.988 314.453 355.538 324.918L355.844 329.756H308.998L306.986 279.213C306.63 270.454 305.79 257.265 304.44 239.823L306.248 238.627Z" fill="#222428"/>
<path d="M355.742 238.627L397.649 238.474C398.464 238.474 401.493 241.784 406.814 248.455L409.921 280.13C409.921 281.301 408.113 284 404.141 288.252C413.001 311.346 418.602 323.314 420.741 323.721C421.617 324.391 422.652 324.821 423.745 324.969L424.331 331.003H405.16C403.861 331.003 398.871 317.763 390.367 291.792H382.729L385.657 328.559C385.793 330.256 385.233 331.105 383.977 331.105H370.559C369.286 331.105 368.599 330.29 368.497 328.559L362.743 247.462C358.339 245.552 356.073 243.719 355.971 241.962L355.742 238.627ZM371.552 255.253V256.374C377.255 258.767 380.158 260.651 380.26 262.001L381.176 273.332H393.244L391.768 256.323H373.36L371.552 255.253Z" fill="#222428"/>
<path d="M95.1925 234.176H129.182C129.182 235.653 131.295 239.268 135.801 245.15L132.44 315.018C132.44 316.07 129.105 320.051 122.435 326.96H88.7002C87.4442 326.96 86.8841 326.17 87.0199 324.592L93.283 236.518C93.5886 234.957 94.2251 234.176 95.1925 234.176ZM99.4698 250.675V251.77C105.377 253.247 108.279 254.724 108.177 256.175L105.02 306.616C105.02 308.169 105.708 308.958 106.751 308.958H116.935L120.245 250.624L99.4698 250.675Z" fill="white"/>
<path d="M143.896 234.329L186.999 234.176V238.556C182.137 248.155 179.361 252.993 178.547 252.993H152.247C150.971 253.026 149.719 252.641 148.682 251.898H147.766V253.018C154.385 253.018 157.602 255.624 157.415 260.835C157.211 266.08 157.746 268.728 158.968 268.728H177.274L176.866 284.795H156.498L155.786 304.604H177.248C178.038 304.604 180.711 309.697 185.294 320.034V324.847H138.982L141.222 274.457C141.604 265.775 141.884 252.662 142.063 235.322L143.896 234.329Z" fill="white"/>
<path d="M198.305 234.176H230.766L245.227 325.101H227.227L224.427 305.852H213.224C211.773 305.852 210.475 312.192 209.329 324.974H191.329C200.214 272.828 204.491 246.169 204.517 242.961C200.341 239.905 198.254 237.69 198.279 236.34L198.305 234.176ZM216.127 250.726C215.465 261.726 214.166 273.855 212.231 287.112L214.09 288.309H223.357C223.357 285.762 221.83 273.031 218.851 250.726H216.127Z" fill="white"/>
<path d="M250.245 234.176H272.828L274.738 309.467H295.437L296.71 317.819C296.328 324.847 295.992 325.279 296.043 326.272H292.603L291.312 326.272H261.906C261.997 326.272 258.087 326.272 258.087 326.272V325.076L256.738 244.183C252.46 240.618 250.296 237.283 250.245 234.176Z" fill="white"/>
<path d="M301.517 234.329L345.156 234.176L345.436 238.581C341.337 248.257 338.892 253.12 338.103 253.12H311.472C310.15 253.142 308.854 252.76 307.755 252.025H306.864V253.12C313.653 253.12 317.141 255.751 317.328 261.013C317.583 266.284 318.321 268.932 319.568 268.932H338.103L338.994 285.1H318.626L319.568 305.063H341.311C342.1 305.063 345.257 310.155 350.808 320.62L351.113 325.458H304.267L302.256 274.915C301.899 266.157 301.059 252.967 299.71 235.526L301.517 234.329Z" fill="white"/>
<path d="M351.014 234.329L392.922 234.176C393.736 234.176 396.766 237.486 402.087 244.157L405.193 275.832C405.193 277.003 403.386 279.702 399.414 283.954C408.274 307.049 413.875 319.016 416.014 319.423C416.89 320.093 417.925 320.523 419.018 320.671L419.604 326.705H400.432C399.134 326.705 394.144 313.465 385.64 287.494H378.002L380.93 324.261C381.066 325.958 380.506 326.807 379.25 326.807H365.832C364.559 326.807 363.872 325.992 363.77 324.261L358.016 243.164C353.611 241.255 351.345 239.421 351.244 237.664L351.014 234.329ZM366.825 250.956V252.076C372.528 254.469 375.431 256.354 375.532 257.703L376.449 269.034H388.517L387.04 252.025H368.633L366.825 250.956Z" fill="white"/>
<path d="M217.854 356.433C216.124 355.181 214.184 354.25 212.125 353.684C209.64 352.989 207.067 352.655 204.487 352.69H181.573L173.935 362.086H205.582C207.031 361.989 208.472 362.374 209.681 363.181C210.131 363.536 210.495 363.989 210.745 364.504C210.995 365.02 211.125 365.586 211.125 366.16C211.125 366.733 210.995 367.299 210.745 367.815C210.495 368.331 210.131 368.784 209.681 369.139C208.481 369.965 207.036 370.36 205.582 370.259H173.935V388.567H185.239V379.426H204.487C207.066 379.46 209.636 379.135 212.125 378.458C214.171 377.916 216.103 377.01 217.828 375.785C219.324 374.705 220.538 373.282 221.367 371.634C222.194 369.947 222.613 368.09 222.589 366.211C222.613 364.316 222.195 362.441 221.367 360.737C220.538 359.054 219.336 357.582 217.854 356.433Z" fill="#222428"/>
<path d="M270.685 378.585C270.02 377.963 269.324 377.376 268.597 376.828C270.02 376.57 271.389 376.07 272.645 375.351C273.794 374.694 274.812 373.831 275.649 372.805C276.489 371.813 277.137 370.673 277.559 369.444C278.001 368.167 278.225 366.824 278.221 365.472C278.306 363.24 277.682 361.038 276.439 359.183C275.246 357.539 273.685 356.196 271.881 355.262C269.973 354.271 267.919 353.592 265.796 353.25C263.65 352.893 261.479 352.706 259.304 352.69H235.652L228.243 362.086H260.246C261.849 362.002 263.444 362.363 264.854 363.13C265.386 363.454 265.821 363.917 266.112 364.468C266.404 365.019 266.541 365.639 266.509 366.261C266.508 366.869 266.339 367.464 266.019 367.981C265.7 368.498 265.244 368.916 264.701 369.19C263.339 369.939 261.8 370.308 260.246 370.259H228.243V388.566H239.623V379.094H257.114L265.287 388.566H280.563L273.816 381.615L270.685 378.585Z" fill="#222428"/>
<path d="M329.239 356.562C324.758 353.575 318.045 352.089 309.1 352.106C300.155 352.123 293.425 353.609 288.91 356.562C286.838 358.26 285.168 360.397 284.021 362.819C282.875 365.241 282.28 367.887 282.28 370.566C282.28 373.246 282.875 375.892 284.021 378.314C285.168 380.735 286.838 382.872 288.91 384.57C293.374 387.524 300.113 389.001 309.125 389.001C318.138 389.001 324.86 387.524 329.29 384.57C331.541 383.014 333.346 380.896 334.525 378.425C335.705 375.955 336.217 373.219 336.011 370.49C336.202 367.778 335.677 365.064 334.488 362.62C333.3 360.175 331.489 358.086 329.239 356.562ZM323.841 375.251C323.281 376.452 322.341 377.436 321.168 378.052C319.671 378.824 318.035 379.292 316.356 379.427C311.529 379.868 306.671 379.868 301.844 379.427C300.165 379.292 298.529 378.824 297.032 378.052C295.859 377.436 294.92 376.452 294.359 375.251C293.272 372.222 293.272 368.91 294.359 365.881C294.921 364.688 295.86 363.712 297.032 363.106C298.541 362.369 300.172 361.912 301.844 361.756C306.671 361.315 311.529 361.315 316.356 361.756C318.028 361.912 319.659 362.369 321.168 363.106C322.34 363.712 323.279 364.688 323.841 365.881C324.928 368.91 324.928 372.222 323.841 375.251Z" fill="#222428"/>
<path d="M161.561 379.757V362.162L89 370.59L161.561 379.757Z" fill="#222428"/>
<path d="M349.837 362.162V379.757L422.398 370.59L349.837 362.162Z" fill="#222428"/>
</svg>